<?xml version="1.0" encoding="UTF-8"?><svg id="uuid-275bee91-c775-492c-8d2c-1c35a846a290" xmlns="http://www.w3.org/2000/svg" viewBox="0 0 289.14 50" width="290px" height="50px"><path d="M26.9,23.31h21.95c-.5,5.45-2.22,14.2-8.11,20.09-5.31,5.31-11.69,6.6-17.43,6.6s-11.69-1.29-16.79-6.24c-3.37-3.23-6.53-8.39-6.53-16.43C0,18.72,3.59,11.76,8.11,7.39,11.98,3.66,18.15,0,27.62,0c3.8,0,8.32.65,12.7,3.37,2.65,1.65,5.24,4.16,7.17,7.46l-8.39,4.81c-1.29-2.37-3.01-4.02-4.81-5.09-2.3-1.43-4.88-2.08-7.75-2.08-5.52,0-9.33,2.3-11.69,4.66-3.3,3.3-5.24,8.54-5.24,13.7,0,5.67,2.44,9.04,4.16,10.76,3.23,3.23,7.17,3.95,10.26,3.95,2.73,0,6.53-.43,9.76-3.23,2.15-1.87,3.66-4.59,4.45-6.96h-12.34l1-8.03Z"/><path d="M85.22,21.31c2.01,2.08,4.02,5.45,4.02,10.33,0,3.95-1.22,8.9-5.52,13.06-4.09,3.87-8.75,5.24-14.28,5.24-4.45,0-8.61-.93-11.98-4.3-2.3-2.22-4.09-5.67-4.09-10.54s2.22-9.9,5.38-12.98c2.51-2.44,6.96-5.24,14.2-5.24,6.1,0,9.9,2.08,12.27,4.45ZM77.11,39.45c1.79-1.79,2.94-4.52,2.94-6.96,0-1.94-.79-4.3-2.3-5.74-1.44-1.36-3.59-2.15-5.67-2.15-2.44,0-4.88.93-6.6,2.51-2.15,2.01-3.08,4.95-3.08,7.39,0,1.87.79,4.09,2.15,5.45,1.44,1.44,3.73,2.22,5.74,2.22,2.37,0,4.95-.86,6.81-2.73Z"/><path d="M125.53,32.42h5.6l-.93,7.46h-5.6l-1.08,9.04h-8.75l1.08-9.04h-23.39l.57-4.16L121.01,1.08h8.39l-3.87,31.35ZM116.78,32.42l2.22-18.51-14.56,18.51h12.34Z"/><path d="M154.15,48.92h-6.6L136.64,1.08h9.76l6.67,32.57L168.85,1.08h5.17l6.96,32.57L196.47,1.08h10.04l-24.03,47.85h-6.6l-6.74-30.34-14.99,30.34Z"/><path d="M252.06,6.17c3.59,3.44,6.31,8.82,6.31,15.93,0,7.6-2.87,15.14-7.68,20.09-3.8,3.95-10.26,7.82-19.94,7.82s-14.78-3.8-17.58-6.67c-3.95-4.02-6.31-9.83-6.31-15.85,0-7.89,3.3-15.28,8.25-19.94,5.02-4.73,12.48-7.53,20.37-7.53,6.82,0,12.77,2.51,16.57,6.17ZM243.02,36.8c3.44-3.37,5.67-8.61,5.67-13.99,0-4.3-1.58-7.82-3.8-10.11-2.08-2.15-5.67-4.16-10.9-4.16s-9.18,2.01-11.91,4.59c-3.66,3.44-5.52,8.46-5.52,13.63s1.94,8.46,3.8,10.4c2.58,2.73,6.46,4.38,10.9,4.38,4.81,0,8.9-1.94,11.77-4.73Z"/><path d="M279.24,1.08l-4.88,39.81h14.78l-1,8.03h-24.1l5.88-47.85h9.33Z"/></svg>