<?xml version="1.0" encoding="UTF-8"?><svg id="uuid-826e361e-d40a-4dbe-aff0-ed97bb858d29" xmlns="http://www.w3.org/2000/svg" xmlns:xlink="http://www.w3.org/1999/xlink" viewBox="0 0 512 512" width="192" height="192"><defs><linearGradient id="uuid-bdcbd5fc-2b2c-408d-952f-e0b21354247e" x1="256" y1="0" x2="256" y2="512" gradientUnits="userSpaceOnUse"><stop offset="0" stop-color="#effff3"/><stop offset="1" stop-color="#e7e1da"/></linearGradient><clipPath id="uuid-027fd979-4d4c-4a6e-b0fa-dddff0f81035"><path d="M369.96,238.62l-33.78,35.12c-7.21,32.7-32.35,58.68-64.57,67.12l-33.78,35.11c3.65.33,7.35.49,11.1.49,67.41,0,122.07-54.65,122.07-122.07,0-5.34-.35-10.61-1.02-15.77h-.02ZM195.81,326.27c-9.19-6.81-17.03-15.33-23.05-25.11l-23.46.06,12.84-25.39c-1.69-6.87-2.6-14.04-2.6-21.44,0-37.26,22.81-69.19,55.22-82.61l19.52-38.58c-60.5,7.21-107.43,58.71-107.43,121.19,0,42.48,21.69,79.88,54.61,101.75l14.36-29.87h-.02ZM322.08,203.07c3.38,4.82,6.3,9.98,8.69,15.42l34.74-.3c-5.36-17.26-14.44-32.89-26.3-45.92l-17.13,30.82v-.02ZM282.89,234.14l62.49-121.86h-75.52l-90.9,177.26h61.82l-62.49,121.88,166.43-177.27h-61.82,0Z" style="fill:none;"/></clipPath></defs><rect width="512" height="512" style="fill:url(#uuid-bdcbd5fc-2b2c-408d-952f-e0b21354247e);"/><g id="uuid-a49a1f5c-c81e-4079-b1ae-e3eafd2ba15c"><g id="uuid-7e55e500-2281-4f67-ad8f-24dc33069cc9" style="isolation:isolate;"><g id="uuid-3ab134bd-3a1a-4962-9cdd-e30087b526c5" style="isolation:isolate; opacity:.1;"><path d="M329.41,208.81c3.38,4.82,6.3,9.98,8.69,15.42l34.74-.3c-5.36-17.26-14.44-32.89-26.3-45.92l-17.13,30.82h0v-.02ZM203.15,332.01c-9.19-6.81-17.03-15.33-23.05-25.11l-23.46.06,12.84-25.39c-1.69-6.87-2.6-14.04-2.6-21.44,0-37.26,22.81-69.19,55.22-82.61l19.52-38.58c-60.5,7.21-107.43,58.71-107.43,121.19,0,42.48,21.69,79.88,54.61,101.75l14.36-29.87h-.02ZM377.3,244.36l-33.78,35.12c-7.21,32.7-32.35,58.68-64.57,67.12l-33.78,35.11c3.65.33,7.35.49,11.1.49,67.41,0,122.07-54.65,122.07-122.07,0-5.34-.35-10.61-1.02-15.77h-.02ZM290.22,239.88l62.49-121.86h-75.52l-90.9,177.26h61.82l-62.49,121.88,166.43-177.27h-61.82Z" style="fill:#273263;"/></g></g><g id="uuid-b7cb697a-6e6e-4c95-8898-522f140e4dcf" style="isolation:isolate;"><g style="clip-path:url(#uuid-027fd979-4d4c-4a6e-b0fa-dddff0f81035);"><rect x="102.09" y="112.28" width="306.25" height="304.87" style="fill:#6a86ff;"/><polygon points="349.43 185.33 324.87 210.85 319.19 202.35 338.81 169.03 349.43 185.33" style="fill:#fff; isolation:isolate; opacity:.1;"/><polygon points="343.78 120 349.67 110.95 267.08 110.95 175.64 290.84 192.3 290.84 280.21 126.38 343.78 120" style="fill:#fff; isolation:isolate; opacity:.1;"/><polygon points="284.1 231.65 279.49 240.85 339.75 240.85 348.25 233.07 284.1 231.65" style="fill:#fff; isolation:isolate; opacity:.1;"/><polygon points="150.83 297.22 146.93 307.53 180.1 306.9 175.29 297.22 150.83 297.22" style="fill:#fff; isolation:isolate; opacity:.1;"/><polygon points="228.45 292.26 279.49 253.26 178.28 417.2 170.68 413.12 228.45 292.26" style="fill:#fff; isolation:isolate; opacity:.1;"/><path d="M369.96,238.61l-28.09,40.88s-9.22,49.97-66.29,68.76l-33.96,40.77-9.65-12.57,133.52-141.27,4.45,3.43h.02Z" style="fill:#fff; isolation:isolate; opacity:.1;"/><path d="M234.3,133.21l-4.79,9.83s-106.69,19.49-87.9,156.31l-2.22,13.92s-77.89-157.64,94.9-180.06Z" style="fill:#fff; isolation:isolate; opacity:.1;"/></g></g></g></svg>